<svg version="1.2" xmlns="http://www.w3.org/2000/svg" viewBox="0 0 1592 1591" width="1592" height="1591">
	<title>header-bd-logo-svg</title>
	<style>
		.s0 { fill: #ffffff } 
		.s1 { fill: #ff6e00 } 
	</style>
	<path id="Layer" class="s0" d="m1592 795.3c0 157.3-46.6 311-134 441.8-87.4 130.8-211.7 232.8-357 293-145.3 60.1-305.2 75.9-459.5 45.2-154.3-30.7-296-106.4-407.3-217.6-111.2-111.3-186.9-253-217.6-407.3-30.7-154.2-15-314.1 45.2-459.5 60.2-145.3 162.2-269.5 293-356.9 130.8-87.4 284.5-134 441.8-134 104.5 0 207.9 20.6 304.4 60.5 96.5 40 184.2 98.6 258 172.4 73.9 73.9 132.5 161.6 172.5 258 39.9 96.5 60.5 200 60.5 304.4z"/>
	<path id="Layer" fill-rule="evenodd" class="s1" d="m455.8 755.8l-448 153.1c-5.1-36.9-7.8-74-7.8-111.2-0.1-112.2 23.7-223.1 69.7-325.4l387.7 274.1c2.3 1.9 3.5 3.5 3.5 5.1 0 1.5-2.3 4.3-5.1 5.1zm246.3-283.5c-0.7 5-2.7 5-4.6 5-2 0-3.6-1.1-5.9-3.5l-325.4-344.6c126.5-81.1 273.7-124.3 424.1-124.5 0 0-85.4 445.6-88.2 467.6zm-162 105.7q-0.4 0.8-1 1.3-0.6 0.6-1.4 0.9-0.8 0.2-1.6 0.1h-3.9l-460.1-113.9c62.9-136.3 163.1-252.1 289-334l179.3 440.1c0.3 1.3 0.3 2.6 0 3.9q0 0.8-0.3 1.6zm585 173.5c0-1.6 1.2-3.2 3.5-5.1l388.1-274.1c45.9 102.3 69.5 213.2 69.3 325.4 0.1 37.2-2.4 74.3-7.4 111.2l-448.4-153.1c-2.4-0.8-5.1-2.8-5.1-4.3zm-329-746.8c150.4 0.3 297.5 43.5 424.1 124.5l-325.8 344.6c-1.9 3.5-3.5 3.5-5.5 3.5-1.9 0-5-1.1-5-5-4-22-87.8-467.6-87.8-467.6zm251.3 574.7c-0.7-0.7-1-1.6-1-2.6q-0.1-1.9 0-3.9c1.1-2 178.5-440.1 178.5-440.1 125.9 81.9 226.1 197.6 289 334l-460.1 113.9h-3.9c-1-0.1-1.9-0.5-2.5-1.3z"/>
	<path id="Layer" class="s1" d="m792.3 1590.6c-189.6-0.3-372.7-68.4-516.4-192-143.7-123.6-238.3-294.6-266.8-481.9l296.8 41.5c1.8 0 3.4 0.7 4.8 1.8 1.3 1.2 2.3 2.7 2.6 4.4 29.3 84.9 80.6 160.5 148.5 219.1 68 58.7 150.2 98.3 238.4 115-42.6-20.8-76.9-55.3-97.4-98.1-20.4-42.7-25.7-91.2-15.1-137.3 10.6-46.2 36.6-87.4 73.7-117 37.1-29.5 83.1-45.5 130.5-45.5 47.4 0 93.4 16 130.4 45.5 37.1 29.6 63.1 70.8 73.7 117 10.7 46.1 5.3 94.6-15.1 137.3-20.4 42.8-54.8 77.3-97.4 98.1 88.7-16.2 171.5-55.7 240-114.4 68.5-58.6 120.1-134.5 149.7-219.7 0.2-1.7 1.1-3.3 2.5-4.5 1.4-1.1 3.1-1.7 4.9-1.7l295.7-41.5c-28.7 187.3-123.3 358.2-267 481.8-143.6 123.6-326.7 191.7-516.3 192.1"/>
</svg>